PathFileType	4	(X/Y/Z)	12_2_68_p1_0-309.trc
DataRate	CameraRate	NumFrames	NumMarkers	Units	OrigDataRate	OrigDataStartFrame	OrigNumFrames
60.0	60.0	6	27	m	60.0	193	310
Frame#	Time	RHip			RKnee			RAnkle			RBigToe			RSmallToe			RHeel			LHip			LKnee			LAnkle			LBigToe			LSmallToe			LHeel			Neck			Head			Nose			RShoulder			RElbow			RWrist			RThumb			RIndex			RPinky			LShoulder			LElbow			LWrist			LThumb			LIndex			LPinky			
		X1	Y1	Z1	X2	Y2	Z2	X3	Y3	Z3	X4	Y4	Z4	X5	Y5	Z5	X6	Y6	Z6	X7	Y7	Z7	X8	Y8	Z8	X9	Y9	Z9	X10	Y10	Z10	X11	Y11	Z11	X12	Y12	Z12	X13	Y13	Z13	X14	Y14	Z14	X15	Y15	Z15	X16	Y16	Z16	X17	Y17	Z17	X18	Y18	Z18	X19	Y19	Z19	X20	Y20	Z20	X21	Y21	Z21	X22	Y22	Z22	X23	Y23	Z23	X24	Y24	Z24	X25	Y25	Z25	X26	Y26	Z26	X27	Y27	Z27	
193	3.216666666666667	0.4221674403539666	0.5226904541972102	1.0726103550997026	0.4747598093391915	0.5570942848285294	1.5083348777074015	0.4897092986078148	0.612925720808328	1.9277480329742063	0.47208517941976924	0.3790560812118281	1.9176933831155503	0.5286650148741132	0.4160520874028266	1.918832144419844	0.468315258118717	0.6638463092874578	2.012696493021826	0.1956612500402106	0.5227691866138432	1.1015322585414258	0.2466998740611308	0.5419571346089107	1.5370308475969847	0.31242283492730083	0.5867907815057632	1.9435635195531844	0.32641324663037685	0.3955623631643591	1.9516128169885083	0.25990717519305745	0.4319389815942567	1.950580916533152	0.33636381361169204	0.6445730505794234	2.0055319259771047	0.2380707593389938	0.5851707557104815	0.4207962610356109	0.21550639759415666	0.5638807224739553	0.17138289487836417	0.2389994584090152	0.48037868477462137	0.2919868072220035	0.43734272949848946	0.5664331291870849	0.5299412016509805	0.4899116535200399	0.5046049446556137	0.802132810957464	0.3736858978200062	0.3365010878115947	0.9881981462262398	0.30659259011786566	0.32230943083451735	1.04681567486716	0.2945776248248628	0.33146927240284335	1.0704647366276978	0.2882420375508889	0.3703680610939735	1.0852569565701822	0.08514730821923114	0.6111329710527991	0.5563414507010555	0.062176484428237415	0.5221023106325762	0.8411722409431037	0.2378188874618502	0.40773810988224074	0.9960006355154313	0.33993962855228704	0.3293998575157856	1.0305149202661008	0.34308487159637086	0.3257386951056601	1.0589660852079994	0.30950442268406947	0.3440368541635669	1.0739239624359915
194	3.2333333333333334	0.42233651336056555	0.5225378122977115	1.0688852871083216	0.4747447901150828	0.5570978293411402	1.5082340220472743	0.4897709741106216	0.6129261684014398	1.9278019877817534	0.47281160614820755	0.3769541452362523	1.9210049281413533	0.52954874671197	0.413918837764339	1.9224651172111098	0.47267645563945226	0.6675799345473754	2.0142635158798976	0.1956875110002644	0.5227773281480848	1.1013310193015438	0.2461914867554917	0.5420369554819208	1.5412901821853398	0.31238440601230294	0.5868849893134461	1.9433717512371322	0.32639666584193805	0.39599162373518487	1.951731749566883	0.2630258267278495	0.4442318342065483	1.9582792653764876	0.33625745759393805	0.6446291777489477	2.005580634314685	0.23781028778278307	0.5854624037418106	0.41738414071009344	0.21548455312364032	0.5636324887554641	0.1712794032787176	0.23952247581608993	0.48089348218603767	0.2953531085033001	0.4379018824176736	0.5657166978002913	0.5333473894171779	0.49002324029170274	0.5042822132812675	0.8056511362639875	0.36992036212610857	0.3490685116279366	0.9933449555246203	0.30658776935535087	0.3222954864393005	1.0469207821576836	0.2940139753324958	0.33209668018696265	1.0672311355667286	0.28813023227156515	0.3698994419068201	1.084934998792688	0.08517635304970245	0.6111257276558186	0.5561516469388971	0.06216664018475709	0.5220575815925242	0.8410991936345065	0.24201151250310543	0.3953406548945577	0.9912167158812177	0.34011708726409917	0.3290488062031365	1.0302450414708648	0.3425017216265365	0.3269832577113111	1.055210833309578	0.3093981476617575	0.34418111767621407	1.0739426324199997
195	3.25	0.4223055755314133	0.5225870415738669	1.068772856494952	0.4747355764908769	0.5569852897321459	1.5081614998545794	0.48973205997046476	0.6129119129352293	1.9277771105087054	0.4728112626059321	0.37682588383314847	1.9209060026714733	0.5294998919393611	0.41367449093301023	1.9223110990302619	0.4724357262337052	0.6671316549740611	2.0139825994747653	0.19576068516821954	0.5227699947764627	1.1012302629311748	0.2510107174360744	0.5442594557941892	1.5372997764828547	0.3117948423690779	0.5868426469340937	1.9488141983776153	0.32636026736902646	0.39531498232946527	1.951374443910026	0.2598795596795573	0.4317735540813826	1.950277170976469	0.33614567191614	0.6442908817812276	2.005397768064292	0.2380532397832297	0.5850864385620947	0.42079762263175935	0.21548623036601147	0.5637779014709091	0.17133399216797887	0.23950650504482732	0.480991604549889	0.29542545723503505	0.437309767633514	0.5664048101530055	0.5299339701305941	0.4900431342647551	0.5044035862247358	0.8056684576523936	0.37052661205903686	0.3476796717647466	0.9965400917639805	0.30318977272771497	0.32311724453089063	1.0452457979112815	0.29390520201072484	0.3321920217157039	1.067339262704099	0.2881141712138319	0.3702163622399809	1.0850009904325544	0.08515865424969751	0.610971588473471	0.5562939029705034	0.06217907329279688	0.5218825575999274	0.8411688757414788	0.242032882190597	0.39548853248097876	0.9910975727006351	0.3430548982805095	0.33967556688276795	1.033809653854566	0.3421159515339788	0.3495452061538631	1.0639068688913835	0.30930269950755596	0.34416848850164095	1.0738721221156946
196	3.2666666666666666	0.42214879892857216	0.5228611064904373	1.0726428532317394	0.47506998962723823	0.5565920190263748	1.5038578198382073	0.4897367454947124	0.6129562271805543	1.9278332747147422	0.4728160073120187	0.37688537770663927	1.9209326758648086	0.5295479360395103	0.4137246761438048	1.9223768551586657	0.47259253874059526	0.6677534841785892	2.0143427243317293	0.19550215572104115	0.5225794210591947	1.105617737892466	0.25055418986003997	0.5443902967941063	1.541746265288992	0.3123844798722735	0.5867633594404188	1.943371577263223	0.3263003627299411	0.3958825789594257	1.9516358275904717	0.2598922500949714	0.432261004761691	1.9504252261191648	0.3363041539389618	0.6443491896517709	2.0055438626038615	0.2380509733155612	0.5850829370099693	0.4208444251989355	0.2154876773384482	0.5637204822822297	0.17133862423545967	0.23949517720285057	0.4809684232403024	0.295402157694654	0.4379081971991379	0.5656198386801664	0.5333778494567337	0.48997846878467094	0.5046433978449781	0.8022006214868586	0.36999652902877755	0.34891925187621503	0.9931901328440734	0.30662935956371673	0.3223343672354834	1.0469348427119054	0.2946727887940099	0.33097203291886407	1.0702397078462702	0.28812824058108877	0.37017447067932874	1.084983360052988	0.08515708382115993	0.6110804640698454	0.5562713844391548	0.06219656381073392	0.5220227500663126	0.841227551856145	0.24203093602213416	0.39542938337462613	0.9911688588270042	0.3402290705089897	0.32952665667451003	1.0304121551844054	0.3420726004059236	0.34939040676440086	1.0638634543302168	0.3057110990353804	0.34186166416130753	1.0735411450846004
197	3.283333333333333	0.4221227715376124	0.5228037467846365	1.0725951466293489	0.4750814728525075	0.5564590247179505	1.5037746167919628	0.4897342835489393	0.612899493334493	1.9278097993019085	0.472824336893928	0.37685427348241846	1.920983346315445	0.5295639195528214	0.4137966650085269	1.9223462262619604	0.4699621180937199	0.6662486803741403	2.0193792236441603	0.1956718698428576	0.5228610599274239	1.1014018478386465	0.2510035313679023	0.5442558182892774	1.5373218816172105	0.31239816253877506	0.5868784815789111	1.9435488456029295	0.3261995521611379	0.39590574195127176	1.9516596574075342	0.2598610612946899	0.4322341551789133	1.9505638003810934	0.3363321206104029	0.6444355359498803	2.005659263501829	0.23805495561352244	0.5851370925115257	0.42084318159341894	0.21548048647177553	0.5636873973141011	0.17133970423354034	0.23946827024712258	0.4809642030885538	0.2954043580808526	0.43793036874238883	0.5659078533882284	0.5334375473397523	0.489991361443684	0.504547853617138	0.802232328222717	0.37370013657903056	0.3367109983884686	0.9883346972349346	0.3067103006907706	0.32221023106881663	1.0466401775289196	0.29470685608985264	0.330961328769579	1.0702553737792366	0.2881243560729916	0.3703209928068584	1.0851887625827796	0.08513110474376599	0.6110640853801008	0.5563523028111323	0.06217707985444669	0.5219817866630906	0.8412140516180383	0.24203915919351476	0.39546249675588846	0.9912012236613807	0.3402405046713732	0.329402823059062	1.0302856432804794	0.3420971155505822	0.34939223383670104	1.0638831331171923	0.3055383703479327	0.3415880798019585	1.0776554224270498
198	3.3	0.42211123395368194	0.5227445522910982	1.0726537147899458	0.4750560803743475	0.5566237042993976	1.5038393059667299	0.48969287009121976	0.6128533416490893	1.927744607208813	0.47281535395307034	0.3768925781537869	1.9209595614592831	0.5295151887932114	0.41367394101114985	1.9223222313869255	0.4682263510732994	0.6649021840151841	2.0132491246744375	0.1954395458313545	0.5225053079463383	1.1055829337984475	0.25099506753066736	0.5441829984436473	1.5371919548687547	0.31181843557129263	0.5870157245140759	1.949099796879747	0.326221647309271	0.395659954444661	1.9515052185665518	0.25990296681361397	0.43213453446453753	1.950542941661854	0.33605500151268103	0.6440966734520576	2.0054058036469447	0.23805925805092842	0.5851404987348674	0.420814170698118	0.21550427133072833	0.5636806030746544	0.17122583715219755	0.23950919437674512	0.4810338605042592	0.29537536784751456	0.43794208842449817	0.5658848800738913	0.5334403769430437	0.49002301984552604	0.504604340746396	0.8022875490973296	0.3742254089712799	0.33524878852540163	0.9915216476444748	0.30669045228129777	0.32213192077675534	1.0467471190486641	0.29400502261979516	0.332022130446418	1.0672419927386685	0.28805683503365026	0.37033715439096265	1.085183578249774	0.08511544750950842	0.61121482498933	0.5563527197301419	0.062149107670695494	0.5219919976547216	0.8411968980363743	0.24201680247758106	0.39543607083061977	0.9912007502726303	0.34022045882582075	0.32935199224406114	1.0302884678104385	0.3456268198308939	0.3369234168864366	1.0585848253636978	0.30567025412579535	0.3418590361178195	1.0736613182964172
